<mxfile host="app.diagrams.net" agent="Mozilla/5.0 (Windows NT 10.0; Win64; x64) AppleWebKit/537.36 (KHTML, like Gecko) Chrome/129.0.0.0 Safari/537.36" version="24.7.17">
  <diagram name="Page-1" id="E20l5TJ3DYgccztzXamK">
    <mxGraphModel dx="1400" dy="743" grid="1" gridSize="10" guides="1" tooltips="1" connect="1" arrows="1" fold="1" page="1" pageScale="1" pageWidth="850" pageHeight="1100" math="0" shadow="0">
      <root>
        <mxCell id="0" />
        <mxCell id="1" parent="0" />
        <mxCell id="6cl71o_UnSZuFLzN_svb-1" value="Start" style="ellipse;aspect=fixed;strokeWidth=2;whiteSpace=wrap;" vertex="1" parent="1">
          <mxGeometry x="203" y="20" width="50" height="50" as="geometry" />
        </mxCell>
        <mxCell id="6cl71o_UnSZuFLzN_svb-2" value="Read potentiometer value from analog pin" style="whiteSpace=wrap;strokeWidth=2;" vertex="1" parent="1">
          <mxGeometry x="104" y="120" width="247" height="66" as="geometry" />
        </mxCell>
        <mxCell id="6cl71o_UnSZuFLzN_svb-3" value="Is value &amp;lt;= 5V?" style="rhombus;strokeWidth=2;whiteSpace=wrap;" vertex="1" parent="1">
          <mxGeometry x="141" y="236" width="173" height="173" as="geometry" />
        </mxCell>
        <mxCell id="6cl71o_UnSZuFLzN_svb-4" value="Turn ON LED" style="whiteSpace=wrap;strokeWidth=2;" vertex="1" parent="1">
          <mxGeometry x="38" y="482" width="149" height="48" as="geometry" />
        </mxCell>
        <mxCell id="6cl71o_UnSZuFLzN_svb-5" value="Turn OFF LED" style="whiteSpace=wrap;strokeWidth=2;" vertex="1" parent="1">
          <mxGeometry x="265" y="482" width="155" height="48" as="geometry" />
        </mxCell>
        <mxCell id="6cl71o_UnSZuFLzN_svb-6" value="Process the value" style="whiteSpace=wrap;strokeWidth=2;" vertex="1" parent="1">
          <mxGeometry x="20" y="580" width="185" height="48" as="geometry" />
        </mxCell>
        <mxCell id="6cl71o_UnSZuFLzN_svb-7" value="Ignore the value" style="whiteSpace=wrap;strokeWidth=2;" vertex="1" parent="1">
          <mxGeometry x="255" y="580" width="177" height="48" as="geometry" />
        </mxCell>
        <mxCell id="6cl71o_UnSZuFLzN_svb-8" value="End" style="ellipse;aspect=fixed;strokeWidth=2;whiteSpace=wrap;" vertex="1" parent="1">
          <mxGeometry x="207" y="678" width="41" height="41" as="geometry" />
        </mxCell>
        <mxCell id="6cl71o_UnSZuFLzN_svb-9" value="" style="curved=1;startArrow=none;endArrow=block;exitX=0.49;exitY=1;entryX=0.5;entryY=0;rounded=0;" edge="1" parent="1" source="6cl71o_UnSZuFLzN_svb-1" target="6cl71o_UnSZuFLzN_svb-2">
          <mxGeometry relative="1" as="geometry">
            <Array as="points" />
          </mxGeometry>
        </mxCell>
        <mxCell id="6cl71o_UnSZuFLzN_svb-10" value="" style="curved=1;startArrow=none;endArrow=block;exitX=0.5;exitY=1;entryX=0.5;entryY=0;rounded=0;" edge="1" parent="1" source="6cl71o_UnSZuFLzN_svb-2" target="6cl71o_UnSZuFLzN_svb-3">
          <mxGeometry relative="1" as="geometry">
            <Array as="points" />
          </mxGeometry>
        </mxCell>
        <mxCell id="6cl71o_UnSZuFLzN_svb-11" value="Yes" style="curved=1;startArrow=none;endArrow=block;exitX=0.03;exitY=1;entryX=0.5;entryY=-0.01;rounded=0;" edge="1" parent="1" source="6cl71o_UnSZuFLzN_svb-3" target="6cl71o_UnSZuFLzN_svb-4">
          <mxGeometry relative="1" as="geometry">
            <Array as="points">
              <mxPoint x="112" y="445" />
            </Array>
          </mxGeometry>
        </mxCell>
        <mxCell id="6cl71o_UnSZuFLzN_svb-12" value="No" style="curved=1;startArrow=none;endArrow=block;exitX=0.97;exitY=1;entryX=0.5;entryY=-0.01;rounded=0;" edge="1" parent="1" source="6cl71o_UnSZuFLzN_svb-3" target="6cl71o_UnSZuFLzN_svb-5">
          <mxGeometry relative="1" as="geometry">
            <Array as="points">
              <mxPoint x="343" y="445" />
            </Array>
          </mxGeometry>
        </mxCell>
        <mxCell id="6cl71o_UnSZuFLzN_svb-13" value="" style="curved=1;startArrow=none;endArrow=block;exitX=0.5;exitY=1;entryX=0.5;entryY=0;rounded=0;" edge="1" parent="1" source="6cl71o_UnSZuFLzN_svb-4" target="6cl71o_UnSZuFLzN_svb-6">
          <mxGeometry relative="1" as="geometry">
            <Array as="points" />
          </mxGeometry>
        </mxCell>
        <mxCell id="6cl71o_UnSZuFLzN_svb-14" value="" style="curved=1;startArrow=none;endArrow=block;exitX=0.5;exitY=1;entryX=0.5;entryY=0;rounded=0;" edge="1" parent="1" source="6cl71o_UnSZuFLzN_svb-5" target="6cl71o_UnSZuFLzN_svb-7">
          <mxGeometry relative="1" as="geometry">
            <Array as="points" />
          </mxGeometry>
        </mxCell>
        <mxCell id="6cl71o_UnSZuFLzN_svb-15" value="" style="curved=1;startArrow=none;endArrow=block;exitX=0.5;exitY=1.01;entryX=0;entryY=0.31;rounded=0;" edge="1" parent="1" source="6cl71o_UnSZuFLzN_svb-6" target="6cl71o_UnSZuFLzN_svb-8">
          <mxGeometry relative="1" as="geometry">
            <Array as="points">
              <mxPoint x="112" y="653" />
            </Array>
          </mxGeometry>
        </mxCell>
        <mxCell id="6cl71o_UnSZuFLzN_svb-16" value="" style="curved=1;startArrow=none;endArrow=block;exitX=0.5;exitY=1.01;entryX=1.01;entryY=0.31;rounded=0;" edge="1" parent="1" source="6cl71o_UnSZuFLzN_svb-7" target="6cl71o_UnSZuFLzN_svb-8">
          <mxGeometry relative="1" as="geometry">
            <Array as="points">
              <mxPoint x="343" y="653" />
            </Array>
          </mxGeometry>
        </mxCell>
      </root>
    </mxGraphModel>
  </diagram>
</mxfile>
